<svg width="400" height="328" viewBox="0 0 400 328" fill="none" xmlns="http://www.w3.org/2000/svg">
<g filter="url(#filter0_d_10_1727)">
<path d="M32 272C32 280.837 39.1634 288 48 288H352C360.837 288 368 280.837 368 272V40C368 31.1635 360.837 24 352 24H48C39.1634 24 32 31.1635 32 40V272Z" fill="#18181B"/>
<path d="M112.43 253H107.721V267.545H112.579C114.004 267.545 115.228 267.254 116.251 266.672C117.274 266.094 118.057 265.263 118.602 264.179C119.151 263.099 119.426 261.804 119.426 260.294C119.426 258.779 119.149 257.477 118.595 256.388C118.045 255.299 117.25 254.461 116.208 253.874C115.167 253.291 113.907 253 112.43 253ZM109.916 254.918H112.309C113.417 254.918 114.338 255.126 115.072 255.543C115.806 255.964 116.355 256.572 116.72 257.368C117.084 258.168 117.267 259.143 117.267 260.294C117.267 261.435 117.084 262.403 116.72 263.199C116.36 263.994 115.822 264.598 115.107 265.01C114.392 265.422 113.505 265.628 112.444 265.628H109.916V254.918ZM126.686 252.78C125.611 252.78 124.685 253.009 123.909 253.469C123.137 253.933 122.541 254.584 122.119 255.422C121.702 256.265 121.494 257.252 121.494 258.384C121.494 259.501 121.702 260.486 122.119 261.338C122.541 262.19 123.128 262.856 123.881 263.334C124.638 263.812 125.523 264.051 126.537 264.051C127.152 264.051 127.749 263.949 128.327 263.746C128.904 263.542 129.423 263.223 129.882 262.787C130.341 262.351 130.703 261.786 130.969 261.089C131.234 260.398 131.366 259.558 131.366 258.568V257.815H122.694V259.406H129.285C129.285 259.965 129.172 260.46 128.944 260.891C128.717 261.326 128.398 261.67 127.986 261.92C127.578 262.171 127.1 262.297 126.551 262.297C125.954 262.297 125.434 262.15 124.988 261.857C124.548 261.568 124.207 261.189 123.966 260.72C123.729 260.256 123.611 259.752 123.611 259.207V257.964C123.611 257.235 123.738 256.615 123.994 256.104C124.255 255.592 124.617 255.202 125.081 254.932C125.545 254.667 126.087 254.534 126.707 254.534C127.11 254.534 127.477 254.591 127.808 254.705C128.14 254.823 128.426 254.998 128.667 255.23C128.909 255.462 129.094 255.749 129.221 256.089L131.231 255.727C131.07 255.135 130.782 254.617 130.365 254.172C129.953 253.732 129.434 253.388 128.809 253.142C128.189 252.901 127.481 252.78 126.686 252.78ZM133.722 253V263.909H135.846V253H133.722ZM134.795 265.592C134.426 265.592 134.108 265.715 133.843 265.962C133.583 266.213 133.453 266.511 133.453 266.857C133.453 267.207 133.583 267.505 133.843 267.751C134.108 268.002 134.426 268.128 134.795 268.128C135.164 268.128 135.479 268.002 135.74 267.751C136.005 267.505 136.137 267.207 136.137 266.857C136.137 266.511 136.005 266.213 135.74 265.962C135.479 265.715 135.164 265.592 134.795 265.592ZM140.379 263.909L142.787 259.662L145.216 263.909H147.538L144.136 258.455L147.567 253H145.244L142.787 257.077L140.336 253H138.007L141.402 258.455L138.05 263.909H140.379ZM153.991 252.78C152.916 252.78 151.99 253.009 151.214 253.469C150.442 253.933 149.845 254.584 149.424 255.422C149.007 256.265 148.799 257.252 148.799 258.384C148.799 259.501 149.007 260.486 149.424 261.338C149.845 262.19 150.432 262.856 151.185 263.334C151.943 263.812 152.828 264.051 153.841 264.051C154.457 264.051 155.054 263.949 155.631 263.746C156.209 263.542 156.727 263.223 157.187 262.787C157.646 262.351 158.008 261.786 158.273 261.089C158.538 260.398 158.671 259.558 158.671 258.568V257.815H149.999V259.406H156.59C156.59 259.965 156.476 260.46 156.249 260.891C156.022 261.326 155.702 261.67 155.29 261.92C154.883 262.171 154.405 262.297 153.856 262.297C153.259 262.297 152.738 262.15 152.293 261.857C151.853 261.568 151.512 261.189 151.27 260.72C151.034 260.256 150.915 259.752 150.915 259.207V257.964C150.915 257.235 151.043 256.615 151.299 256.104C151.559 255.592 151.921 255.202 152.385 254.932C152.849 254.667 153.392 254.534 154.012 254.534C154.414 254.534 154.781 254.591 155.113 254.705C155.444 254.823 155.731 254.998 155.972 255.23C156.214 255.462 156.398 255.749 156.526 256.089L158.536 255.727C158.375 255.135 158.086 254.617 157.67 254.172C157.258 253.732 156.739 253.388 156.114 253.142C155.494 252.901 154.786 252.78 153.991 252.78ZM174.495 261.246L172.57 260.905C172.49 261.151 172.362 261.385 172.187 261.608C172.016 261.83 171.784 262.013 171.491 262.155C171.197 262.297 170.83 262.368 170.39 262.368C169.788 262.368 169.287 262.233 168.884 261.963C168.482 261.698 168.28 261.355 168.28 260.933C168.28 260.569 168.415 260.275 168.685 260.053C168.955 259.83 169.391 259.648 169.992 259.506L171.725 259.108C172.729 258.876 173.477 258.518 173.969 258.036C174.462 257.553 174.708 256.925 174.708 256.153C174.708 255.5 174.519 254.918 174.14 254.406C173.766 253.9 173.242 253.502 172.57 253.213C171.903 252.924 171.128 252.78 170.248 252.78C169.026 252.78 168.029 253.04 167.258 253.561C166.486 254.087 166.012 254.832 165.837 255.798L167.89 256.111C168.018 255.576 168.28 255.171 168.678 254.896C169.076 254.626 169.594 254.491 170.233 254.491C170.93 254.491 171.486 254.636 171.903 254.925C172.319 255.218 172.528 255.576 172.528 255.997C172.528 256.338 172.4 256.625 172.144 256.857C171.893 257.089 171.507 257.264 170.986 257.382L169.14 257.787C168.122 258.019 167.369 258.388 166.881 258.895C166.398 259.402 166.157 260.043 166.157 260.82C166.157 261.464 166.337 262.027 166.697 262.51C167.056 262.993 167.554 263.369 168.188 263.639C168.823 263.914 169.549 264.051 170.368 264.051C171.547 264.051 172.475 263.795 173.153 263.284C173.83 262.777 174.277 262.098 174.495 261.246ZM181.744 252.78C180.67 252.78 179.744 253.009 178.968 253.469C178.196 253.933 177.599 254.584 177.178 255.422C176.761 256.265 176.553 257.252 176.553 258.384C176.553 259.501 176.761 260.486 177.178 261.338C177.599 262.19 178.186 262.856 178.939 263.334C179.697 263.812 180.582 264.051 181.595 264.051C182.211 264.051 182.807 263.949 183.385 263.746C183.963 263.542 184.481 263.223 184.941 262.787C185.4 262.351 185.762 261.786 186.027 261.089C186.292 260.398 186.425 259.558 186.425 258.568V257.815H177.753V259.406H184.344C184.344 259.965 184.23 260.46 184.003 260.891C183.776 261.326 183.456 261.67 183.044 261.92C182.637 262.171 182.159 262.297 181.61 262.297C181.013 262.297 180.492 262.15 180.047 261.857C179.607 261.568 179.266 261.189 179.024 260.72C178.788 260.256 178.669 259.752 178.669 259.207V257.964C178.669 257.235 178.797 256.615 179.053 256.104C179.313 255.592 179.675 255.202 180.139 254.932C180.603 254.667 181.146 254.534 181.766 254.534C182.168 254.534 182.535 254.591 182.867 254.705C183.198 254.823 183.485 254.998 183.726 255.23C183.968 255.462 184.152 255.749 184.28 256.089L186.29 255.727C186.129 255.135 185.84 254.617 185.423 254.172C185.012 253.732 184.493 253.388 183.868 253.142C183.248 252.901 182.54 252.78 181.744 252.78ZM195.692 257.524V263.909H197.822V253H195.734V254.889H195.621C195.37 254.307 194.967 253.821 194.413 253.433C193.864 253.05 193.18 252.858 192.361 252.858C191.66 252.858 191.04 253.012 190.5 253.32C189.965 253.632 189.543 254.094 189.236 254.705C188.933 255.315 188.781 256.071 188.781 256.97V263.909H190.905V257.226C190.905 256.482 191.111 255.891 191.523 255.45C191.934 255.01 192.47 254.79 193.128 254.79C193.525 254.79 193.921 254.889 194.314 255.088C194.711 255.287 195.041 255.588 195.301 255.99C195.566 256.393 195.696 256.904 195.692 257.524ZM211.16 263.909V262.205H204.996V263.909H211.16ZM206.686 253V265.173C206.686 265.855 206.835 266.421 207.133 266.871C207.432 267.325 207.827 267.664 208.319 267.886C208.812 268.114 209.347 268.227 209.925 268.227C210.351 268.227 210.715 268.192 211.018 268.121C211.321 268.054 211.546 267.993 211.693 267.936L211.196 266.217C211.096 266.246 210.969 266.279 210.812 266.317C210.656 266.359 210.467 266.381 210.244 266.381C209.728 266.381 209.359 266.253 209.136 265.997C208.918 265.741 208.809 265.372 208.809 264.889V253H206.686ZM217.623 252.78C216.549 252.78 215.623 253.009 214.846 253.469C214.075 253.933 213.478 254.584 213.057 255.422C212.64 256.265 212.432 257.252 212.432 258.384C212.432 259.501 212.64 260.486 213.057 261.338C213.478 262.19 214.065 262.856 214.818 263.334C215.576 263.812 216.461 264.051 217.474 264.051C218.09 264.051 218.686 263.949 219.264 263.746C219.842 263.542 220.36 263.223 220.819 262.787C221.279 262.351 221.641 261.786 221.906 261.089C222.171 260.398 222.304 259.558 222.304 258.568V257.815H213.632V259.406H220.223C220.223 259.965 220.109 260.46 219.882 260.891C219.655 261.326 219.335 261.67 218.923 261.92C218.516 262.171 218.038 262.297 217.488 262.297C216.892 262.297 216.371 262.15 215.926 261.857C215.486 261.568 215.145 261.189 214.903 260.72C214.666 260.256 214.548 259.752 214.548 259.207V257.964C214.548 257.235 214.676 256.615 214.932 256.104C215.192 255.592 215.554 255.202 216.018 254.932C216.482 254.667 217.024 254.534 217.645 254.534C218.047 254.534 218.414 254.591 218.746 254.705C219.077 254.823 219.363 254.998 219.605 255.23C219.846 255.462 220.031 255.749 220.159 256.089L222.169 255.727C222.008 255.135 221.719 254.617 221.302 254.172C220.89 253.732 220.372 253.388 219.747 253.142C219.127 252.901 218.419 252.78 217.623 252.78ZM229.362 252.78C228.287 252.78 227.361 253.009 226.585 253.469C225.813 253.933 225.216 254.584 224.795 255.422C224.378 256.265 224.17 257.252 224.17 258.384C224.17 259.501 224.378 260.486 224.795 261.338C225.216 262.19 225.803 262.856 226.556 263.334C227.314 263.812 228.199 264.051 229.213 264.051C229.828 264.051 230.425 263.949 231.002 263.746C231.58 263.542 232.098 263.223 232.558 262.787C233.017 262.351 233.379 261.786 233.644 261.089C233.91 260.398 234.042 259.558 234.042 258.568V257.815H225.37V259.406H231.961C231.961 259.965 231.847 260.46 231.62 260.891C231.393 261.326 231.073 261.67 230.661 261.92C230.254 262.171 229.776 262.297 229.227 262.297C228.63 262.297 228.109 262.15 227.664 261.857C227.224 261.568 226.883 261.189 226.642 260.72C226.405 260.256 226.286 259.752 226.286 259.207V257.964C226.286 257.235 226.414 256.615 226.67 256.104C226.93 255.592 227.293 255.202 227.757 254.932C228.221 254.667 228.763 254.534 229.383 254.534C229.785 254.534 230.152 254.591 230.484 254.705C230.815 254.823 231.102 254.998 231.343 255.23C231.585 255.462 231.769 255.749 231.897 256.089L233.907 255.727C233.746 255.135 233.457 254.617 233.041 254.172C232.629 253.732 232.11 253.388 231.485 253.142C230.865 252.901 230.157 252.78 229.362 252.78ZM240.482 252.787C239.601 252.787 238.815 253.012 238.124 253.462C237.438 253.916 236.898 254.563 236.505 255.401C236.117 256.243 235.922 257.254 235.922 258.433C235.922 259.612 236.119 260.621 236.512 261.459C236.91 262.297 237.454 262.938 238.145 263.384C238.837 263.829 239.62 264.051 240.496 264.051C241.173 264.051 241.718 263.938 242.13 263.71C242.546 263.488 242.868 263.227 243.096 262.929C243.328 262.631 243.508 262.368 243.635 262.141H243.763V267.545H245.887V253H243.813V254.697H243.635C243.508 254.465 243.323 254.2 243.081 253.902C242.845 253.604 242.518 253.343 242.101 253.121C241.685 252.898 241.145 252.787 240.482 252.787ZM240.951 254.598C241.562 254.598 242.078 254.759 242.499 255.081C242.925 255.408 243.247 255.86 243.465 256.438C243.688 257.015 243.799 257.688 243.799 258.455C243.799 259.212 243.69 259.875 243.472 260.443C243.254 261.011 242.935 261.454 242.513 261.771C242.092 262.089 241.571 262.247 240.951 262.247C240.312 262.247 239.779 262.081 239.353 261.75C238.927 261.419 238.605 260.966 238.387 260.393C238.174 259.821 238.067 259.174 238.067 258.455C238.067 257.725 238.176 257.07 238.394 256.487C238.612 255.905 238.934 255.443 239.36 255.102C239.791 254.766 240.321 254.598 240.951 254.598ZM249.088 253V267.545H251.212V262.141H251.34C251.463 262.368 251.64 262.631 251.872 262.929C252.104 263.227 252.426 263.488 252.838 263.71C253.25 263.938 253.795 264.051 254.472 264.051C255.352 264.051 256.138 263.829 256.83 263.384C257.521 262.938 258.063 262.297 258.456 261.459C258.854 260.621 259.053 259.612 259.053 258.433C259.053 257.254 258.856 256.243 258.463 255.401C258.07 254.563 257.53 253.916 256.844 253.462C256.157 253.012 255.374 252.787 254.493 252.787C253.83 252.787 253.288 252.898 252.867 253.121C252.45 253.343 252.123 253.604 251.887 253.902C251.65 254.2 251.468 254.465 251.34 254.697H251.162V253H249.088ZM251.169 258.455C251.169 257.688 251.28 257.015 251.503 256.438C251.726 255.86 252.048 255.408 252.469 255.081C252.89 254.759 253.406 254.598 254.017 254.598C254.652 254.598 255.182 254.766 255.608 255.102C256.034 255.443 256.356 255.905 256.574 256.487C256.797 257.07 256.908 257.725 256.908 258.455C256.908 259.174 256.799 259.821 256.581 260.393C256.368 260.966 256.046 261.419 255.615 261.75C255.189 262.081 254.656 262.247 254.017 262.247C253.402 262.247 252.881 262.089 252.455 261.771C252.033 261.454 251.714 261.011 251.496 260.443C251.278 259.875 251.169 259.212 251.169 258.455ZM264.612 252.759C263.921 252.759 263.296 252.886 262.737 253.142C262.178 253.402 261.736 253.779 261.409 254.271C261.087 254.764 260.926 255.367 260.926 256.082C260.926 256.698 261.044 257.205 261.281 257.602C261.518 258 261.837 258.315 262.24 258.547C262.642 258.779 263.092 258.954 263.589 259.072C264.086 259.191 264.593 259.281 265.109 259.342C265.763 259.418 266.293 259.48 266.7 259.527C267.107 259.579 267.403 259.662 267.588 259.776C267.773 259.889 267.865 260.074 267.865 260.33V260.379C267.865 261 267.69 261.48 267.339 261.821C266.994 262.162 266.478 262.332 265.791 262.332C265.076 262.332 264.513 262.174 264.101 261.857C263.693 261.544 263.412 261.196 263.256 260.812L261.26 261.267C261.497 261.93 261.842 262.465 262.297 262.872C262.756 263.284 263.284 263.582 263.881 263.767C264.477 263.956 265.104 264.051 265.763 264.051C266.198 264.051 266.66 263.999 267.148 263.895C267.64 263.795 268.099 263.611 268.525 263.341C268.956 263.071 269.309 262.685 269.584 262.183C269.858 261.686 269.996 261.04 269.996 260.244V253H267.922V254.491H267.836C267.699 254.217 267.493 253.947 267.219 253.682C266.944 253.417 266.591 253.196 266.16 253.021C265.729 252.846 265.213 252.759 264.612 252.759ZM265.074 254.463C265.661 254.463 266.163 254.579 266.579 254.811C267.001 255.043 267.32 255.346 267.538 255.72C267.761 256.099 267.872 256.504 267.872 256.935V258.341C267.796 258.265 267.649 258.194 267.432 258.128C267.219 258.066 266.975 258.012 266.7 257.964C266.425 257.922 266.158 257.882 265.898 257.844C265.637 257.811 265.419 257.782 265.244 257.759C264.832 257.706 264.456 257.619 264.115 257.496C263.779 257.373 263.509 257.195 263.305 256.963C263.106 256.736 263.007 256.433 263.007 256.054C263.007 255.528 263.201 255.131 263.589 254.861C263.978 254.596 264.472 254.463 265.074 254.463ZM277.419 252.78C276.363 252.78 275.454 253.019 274.692 253.497C273.934 253.98 273.352 254.645 272.945 255.493C272.538 256.34 272.334 257.311 272.334 258.405C272.334 259.513 272.542 260.491 272.959 261.338C273.376 262.19 273.963 262.856 274.72 263.334C275.478 263.812 276.37 264.051 277.398 264.051C278.227 264.051 278.965 263.897 279.614 263.589C280.262 263.286 280.786 262.86 281.183 262.311C281.586 261.762 281.825 261.12 281.901 260.386H279.834C279.72 260.898 279.46 261.338 279.053 261.707C278.65 262.077 278.11 262.261 277.433 262.261C276.842 262.261 276.323 262.105 275.878 261.793C275.438 261.485 275.094 261.045 274.848 260.472C274.602 259.903 274.479 259.231 274.479 258.455C274.479 257.659 274.6 256.973 274.841 256.395C275.083 255.817 275.423 255.37 275.864 255.053C276.309 254.735 276.832 254.577 277.433 254.577C277.836 254.577 278.2 254.65 278.527 254.797C278.859 254.948 279.136 255.164 279.358 255.443C279.585 255.723 279.744 256.059 279.834 256.452H281.901C281.825 255.746 281.595 255.116 281.212 254.562C280.828 254.009 280.315 253.573 279.671 253.256C279.031 252.938 278.281 252.78 277.419 252.78ZM286.125 256.7L286.111 259.293H286.48L290.827 263.909H293.369L288.412 258.653H288.078L286.125 256.7ZM284.172 253V267.545H286.295V253H284.172ZM291.061 253L287.155 258.185L288.618 259.669L293.667 253H291.061Z" fill="#F4F4F5"/>
<path d="M48 208C48 212.418 51.5817 216 56 216H136C140.418 216 144 212.418 144 208V112C144 107.582 140.418 104 136 104H56C51.5817 104 48 107.582 48 112V208Z" fill="#27272A"/>
<path d="M85.9167 190C86.9167 191 86.1667 194 84.4787 194C82.7907 194 82.9167 192 83.9167 192C84.9167 192 84.9167 190 84.9167 189C84.9167 188 85.9167 190 85.9167 190ZM81.7337 188.28C82.7337 189.28 81.9837 192.28 80.2957 192.28C78.6077 192.28 78.7337 190.28 79.7337 190.28C80.7337 190.28 80.7337 188.28 80.7337 187.28C80.7337 186.28 81.7337 188.28 81.7337 188.28Z" fill="#AA8DD8"/>
<path d="M108.109 161.144C108.298 160.336 109.336 158.864 110.141 159.053C110.947 159.243 111.218 161.024 111.029 161.83C110.84 162.638 110.031 163.137 109.225 162.947C108.42 162.757 107.919 161.95 108.109 161.144ZM102.675 160.495C102.678 159.665 103.356 157.997 104.184 158C105.012 158.004 105.678 159.677 105.675 160.506C105.672 161.335 104.998 162.003 104.17 162.001C103.342 161.997 102.672 161.324 102.675 160.495ZM97.4037 162.941C97.0777 162.177 97.0387 160.378 97.7997 160.051C98.5627 159.727 99.8367 160.998 100.163 161.761C100.488 162.523 100.135 163.404 99.3737 163.731C98.6117 164.056 97.7307 163.704 97.4037 162.941ZM92.3727 173.981C91.5607 173.809 90.0647 172.808 90.2337 171.998C90.4067 171.188 92.1787 170.874 92.9907 171.045C93.8017 171.216 94.3197 172.012 94.1507 172.822C93.9787 173.632 93.1857 174.152 92.3727 173.981ZM90.3357 178.981C89.5237 178.809 88.0277 177.808 88.1967 176.998C88.3697 176.188 90.1417 175.874 90.9537 176.045C91.7647 176.216 92.2827 177.012 92.1137 177.822C91.9417 178.632 91.1477 179.152 90.3357 178.981Z" fill="#744EAA"/>
<path d="M105.746 160C108.577 160 110.672 160.877 111.012 161.027C113.283 162.037 114.305 164.696 113.296 166.966C112.297 169.216 109.68 170.241 107.424 169.28C107.291 169.23 105.631 168.631 104.081 169.352C102.23 170.213 101.086 172.661 100.453 174.561C100.309 174.991 100.068 175.835 99.7667 176.877C97.9007 183.348 96.9347 185.162 95.7837 186.697C92.0727 191.648 86.1917 191.993 83.3007 191.413C80.8637 190.926 79.2827 188.555 79.7707 186.118C80.2587 183.68 82.6307 182.098 85.0667 182.588C85.2287 182.614 87.2707 182.894 88.4907 181.419C89.1337 180.132 90.5707 176.291 91.1207 174.385C91.4667 173.186 91.7497 172.214 91.9147 171.718C93.6877 166.401 96.5807 162.825 100.518 161.089C102.37 160.271 104.172 160 105.746 160Z" fill="#9266CC"/>
<path d="M85.1837 188C85.736 188 86.1837 188.448 86.1837 189C86.1837 189.552 85.736 190 85.1837 190C84.6314 190 84.1837 189.552 84.1837 189C84.1837 188.448 84.6314 188 85.1837 188Z" fill="#202024"/>
<path d="M109.425 161.036C109.336 161.036 109.245 161.048 109.156 161.072C108.624 161.22 108.312 161.771 108.46 162.303C109.217 165.025 107.69 166.845 107.675 166.863C107.316 167.282 107.363 167.914 107.782 168.273C108.2 168.632 108.833 168.585 109.192 168.166C109.284 168.059 111.426 165.506 110.387 161.769C110.265 161.326 109.862 161.036 109.425 161.036ZM102.226 161.599C101.981 161.599 101.736 161.688 101.542 161.869C101.139 162.247 101.118 162.88 101.495 163.283C102.98 164.87 102.948 167.476 102.947 167.503C102.931 168.055 103.366 168.515 103.919 168.531C104.461 168.536 104.932 168.112 104.947 167.559C104.951 167.42 105.02 164.122 102.956 161.915C102.759 161.705 102.492 161.599 102.226 161.599ZM93.6837 170.295C93.2037 170.295 92.7797 170.642 92.6987 171.132C92.6087 171.676 92.9767 172.192 93.5217 172.281C96.5957 172.791 98.2957 174.658 98.3127 174.677C98.6777 175.087 99.3107 175.126 99.7217 174.761C100.134 174.396 100.175 173.768 99.8127 173.355C99.7257 173.256 97.6567 170.94 93.8487 170.309C93.7927 170.299 93.7377 170.295 93.6837 170.295ZM96.6047 165.438C96.1797 165.438 95.7857 165.71 95.6507 166.136C95.4847 166.662 95.7767 167.225 96.3027 167.391C98.9957 168.244 100.183 170.221 100.195 170.241C100.475 170.718 101.087 170.878 101.563 170.598C102.04 170.319 102.199 169.705 101.92 169.23C101.857 169.122 100.325 166.567 96.9067 165.486C96.8057 165.453 96.7037 165.438 96.6047 165.438ZM91.9857 176.108C91.4897 176.108 91.0587 176.477 90.9947 176.983C90.9257 177.531 91.3137 178.031 91.8617 178.101C94.5507 178.441 96.5187 180.072 96.5377 180.089C96.9597 180.443 97.5907 180.392 97.9457 179.97C98.3017 179.549 98.2507 178.92 97.8307 178.563C97.7337 178.48 95.4107 176.534 92.1127 176.117C92.0697 176.111 92.0277 176.108 91.9857 176.108ZM90.1647 180.875C89.7397 180.875 89.3457 181.148 89.2107 181.576C89.0457 182.103 89.3377 182.664 89.8647 182.83C92.9947 183.813 94.1177 185.522 94.1637 185.594C94.4587 186.056 95.0747 186.199 95.5387 185.906C96.0037 185.614 96.1497 185.007 95.8627 184.54C95.8027 184.443 94.3567 182.144 90.4637 180.921C90.3647 180.89 90.2637 180.875 90.1647 180.875Z" fill="#744EAA"/>
<path d="M65.4682 131V141.182H69.0975C69.8896 141.182 70.5459 141.038 71.0662 140.749C71.5866 140.461 71.976 140.067 72.2346 139.566C72.4931 139.069 72.6223 138.509 72.6223 137.886C72.6223 137.259 72.4914 136.696 72.2296 136.195C71.9711 135.698 71.58 135.304 71.0563 135.012C70.5359 134.724 69.8813 134.58 69.0925 134.58H66.5968V135.882H68.9533C69.4538 135.882 69.8598 135.968 70.1713 136.141C70.4829 136.316 70.7116 136.555 70.8574 136.857C71.0033 137.158 71.0762 137.501 71.0762 137.886C71.0762 138.27 71.0033 138.612 70.8574 138.91C70.7116 139.208 70.4812 139.442 70.1664 139.611C69.8548 139.78 69.4438 139.864 68.9334 139.864H67.0044V131H65.4682ZM74.304 131V138.636H75.7408V137.423H75.8203C75.9595 137.834 76.2048 138.157 76.5561 138.393C76.9107 138.631 77.3118 138.751 77.7592 138.751C77.852 138.751 77.9614 138.747 78.0874 138.741C78.2166 138.734 78.3177 138.726 78.3906 138.716V137.294C78.331 137.311 78.2249 137.329 78.0724 137.349C77.92 137.372 77.7675 137.384 77.6151 137.384C77.2637 137.384 76.9505 137.309 76.6754 137.16C76.4036 137.014 76.1882 136.81 76.0291 136.548C75.87 136.29 75.7905 135.995 75.7905 135.663V131H74.304ZM82.6202 130.846C81.9043 130.846 81.2795 131.01 80.7459 131.338C80.2123 131.666 79.798 132.125 79.503 132.715C79.208 133.305 79.0605 133.995 79.0605 134.783C79.0605 135.576 79.208 136.268 79.503 136.862C79.798 137.455 80.2123 137.915 80.7459 138.244C81.2795 138.572 81.9043 138.736 82.6202 138.736C83.3361 138.736 83.9609 138.572 84.4945 138.244C85.0281 137.915 85.4424 137.455 85.7374 136.862C86.0324 136.268 86.1799 135.576 86.1799 134.783C86.1799 133.995 86.0324 133.305 85.7374 132.715C85.4424 132.125 85.0281 131.666 84.4945 131.338C83.9609 131.01 83.3361 130.846 82.6202 130.846ZM82.6252 132.094C83.0892 132.094 83.4737 132.216 83.7786 132.462C84.0835 132.707 84.3089 133.033 84.4547 133.441C84.6039 133.849 84.6784 134.298 84.6784 134.788C84.6784 135.276 84.6039 135.723 84.4547 136.131C84.3089 136.542 84.0835 136.871 83.7786 137.12C83.4737 137.369 83.0892 137.493 82.6252 137.493C82.1578 137.493 81.7701 137.369 81.4618 137.12C81.1569 136.871 80.9299 136.542 80.7807 136.131C80.6349 135.723 80.562 135.276 80.562 134.788C80.562 134.298 80.6349 133.849 80.7807 133.441C80.9299 133.033 81.1569 132.707 81.4618 132.462C81.7701 132.216 82.1578 132.094 82.6252 132.094ZM87.9585 131V141.182H89.445V137.398H89.5344C89.6206 137.558 89.7449 137.741 89.9073 137.95C90.0697 138.159 90.2951 138.341 90.5835 138.497C90.8718 138.656 91.253 138.736 91.7269 138.736C92.3434 138.736 92.8936 138.58 93.3775 138.268C93.8614 137.957 94.2409 137.508 94.516 136.921C94.7944 136.335 94.9336 135.629 94.9336 134.803C94.9336 133.978 94.796 133.27 94.521 132.68C94.2459 132.094 93.868 131.641 93.3874 131.323C92.9068 131.008 92.3583 130.851 91.7418 130.851C91.2778 130.851 90.8983 130.929 90.6033 131.085C90.3117 131.24 90.083 131.423 89.9173 131.631C89.7515 131.84 89.6239 132.026 89.5344 132.188H89.4102V131H87.9585ZM89.4151 134.818C89.4151 134.281 89.493 133.811 89.6488 133.406C89.8046 133.002 90.0299 132.685 90.3249 132.457C90.6199 132.231 90.9812 132.119 91.4087 132.119C91.8529 132.119 92.2241 132.236 92.5224 132.472C92.8207 132.71 93.046 133.033 93.1985 133.441C93.3543 133.849 93.4322 134.308 93.4322 134.818C93.4322 135.322 93.3559 135.774 93.2035 136.175C93.0543 136.576 92.829 136.893 92.5273 137.125C92.229 137.357 91.8562 137.473 91.4087 137.473C90.9779 137.473 90.6133 137.362 90.315 137.14C90.02 136.918 89.7963 136.608 89.6438 136.21C89.4914 135.813 89.4151 135.348 89.4151 134.818ZM98.0893 141.182V131H96.6028V141.182H98.0893ZM103.38 130.846C102.628 130.846 101.98 131.007 101.436 131.328C100.896 131.653 100.479 132.109 100.184 132.695C99.8919 133.285 99.7461 133.976 99.7461 134.768C99.7461 135.551 99.8919 136.24 100.184 136.837C100.479 137.433 100.89 137.899 101.417 138.234C101.947 138.568 102.567 138.736 103.276 138.736C103.707 138.736 104.124 138.665 104.529 138.522C104.933 138.379 105.296 138.156 105.618 137.851C105.939 137.546 106.193 137.15 106.378 136.663C106.564 136.179 106.657 135.59 106.657 134.898V134.371H100.586V135.484H105.2C105.2 135.875 105.12 136.222 104.961 136.523C104.802 136.828 104.578 137.069 104.29 137.244C104.005 137.42 103.67 137.508 103.286 137.508C102.868 137.508 102.504 137.405 102.192 137.2C101.884 136.997 101.645 136.732 101.476 136.404C101.31 136.079 101.228 135.726 101.228 135.345V134.475C101.228 133.965 101.317 133.531 101.496 133.173C101.678 132.815 101.932 132.541 102.257 132.352C102.582 132.167 102.961 132.074 103.395 132.074C103.677 132.074 103.934 132.114 104.166 132.193C104.398 132.276 104.598 132.399 104.767 132.561C104.936 132.723 105.066 132.924 105.155 133.163L106.562 132.909C106.449 132.495 106.247 132.132 105.956 131.82C105.667 131.512 105.304 131.272 104.867 131.099C104.433 130.93 103.937 130.846 103.38 130.846ZM108.306 131V138.636H109.733V137.393H109.827C109.986 137.814 110.247 138.143 110.608 138.378C110.969 138.616 111.402 138.736 111.905 138.736C112.416 138.736 112.843 138.616 113.188 138.378C113.536 138.139 113.793 137.811 113.959 137.393H114.038C114.22 137.801 114.51 138.126 114.908 138.368C115.306 138.613 115.78 138.736 116.33 138.736C117.023 138.736 117.588 138.519 118.025 138.085C118.466 137.65 118.687 136.996 118.687 136.121V131H117.2V135.982C117.2 136.499 117.059 136.873 116.778 137.105C116.496 137.337 116.159 137.453 115.768 137.453C115.284 137.453 114.908 137.304 114.64 137.006C114.371 136.711 114.237 136.331 114.237 135.867V131H112.756V136.076C112.756 136.49 112.626 136.823 112.368 137.075C112.109 137.327 111.773 137.453 111.358 137.453C111.077 137.453 110.817 137.379 110.578 137.229C110.343 137.084 110.152 136.88 110.006 136.618C109.864 136.356 109.792 136.053 109.792 135.708V131H108.306ZM122.901 130.831C122.417 130.831 121.98 130.92 121.589 131.099C121.198 131.282 120.888 131.545 120.659 131.89C120.434 132.235 120.321 132.657 120.321 133.158C120.321 133.589 120.404 133.943 120.57 134.222C120.735 134.5 120.959 134.72 121.241 134.883C121.522 135.045 121.837 135.168 122.185 135.251C122.533 135.334 122.888 135.397 123.249 135.44C123.707 135.493 124.078 135.536 124.363 135.569C124.648 135.605 124.855 135.663 124.984 135.743C125.114 135.822 125.178 135.952 125.178 136.131V136.165C125.178 136.6 125.056 136.936 124.81 137.175C124.568 137.413 124.207 137.533 123.727 137.533C123.226 137.533 122.832 137.422 122.543 137.2C122.258 136.981 122.061 136.737 121.952 136.469L120.555 136.787C120.72 137.251 120.962 137.625 121.281 137.911C121.602 138.199 121.972 138.408 122.389 138.537C122.807 138.67 123.246 138.736 123.707 138.736C124.012 138.736 124.335 138.699 124.676 138.626C125.021 138.557 125.342 138.428 125.641 138.239C125.942 138.05 126.189 137.78 126.381 137.428C126.574 137.08 126.67 136.628 126.67 136.071V131H125.218V132.044H125.158C125.062 131.852 124.918 131.663 124.726 131.477C124.534 131.292 124.287 131.138 123.985 131.015C123.683 130.892 123.322 130.831 122.901 130.831ZM123.224 132.024C123.635 132.024 123.987 132.105 124.278 132.268C124.573 132.43 124.797 132.642 124.95 132.904C125.105 133.169 125.183 133.453 125.183 133.754V134.739C125.13 134.686 125.027 134.636 124.875 134.589C124.726 134.546 124.555 134.508 124.363 134.475C124.171 134.445 123.983 134.417 123.801 134.391C123.619 134.367 123.466 134.348 123.344 134.331C123.055 134.295 122.792 134.233 122.553 134.147C122.318 134.061 122.129 133.937 121.987 133.774C121.847 133.615 121.778 133.403 121.778 133.138C121.778 132.77 121.914 132.491 122.185 132.303C122.457 132.117 122.804 132.024 123.224 132.024Z" fill="#F4F4F5"/>
<path d="M152 208C152 212.418 155.582 216 160 216H240C244.418 216 248 212.418 248 208V112C248 107.582 244.418 104 240 104H160C155.582 104 152 107.582 152 112V208Z" fill="#27272A"/>
<path d="M211 182.08C211 175.641 206 174.641 206 168.64C206 165.542 202.877 165.281 200.5 165.281C198.447 165.281 193.914 166.06 193.914 168.642C193.914 174.64 189 175.64 189 182.08C189 188.111 194.285 193 200.083 193C205.883 193 211 188.111 211 182.08Z" fill="#FFD983"/>
<path d="M204.167 160.64C204.167 159.812 201.933 158.14 200 158.14C198.067 158.14 195.833 159.812 195.833 160.64C195.833 161.468 198.066 161.14 200 161.14C201.933 161.14 204.167 161.468 204.167 160.64Z" fill="#CCD6DD"/>
<path d="M204.707 182.847C204.316 183.238 203.684 183.238 203.293 182.847L200 179.554L196.707 182.847C196.316 183.238 195.684 183.238 195.293 182.847C194.902 182.456 194.902 181.824 195.293 181.433L199 177.726V167.14C199 166.587 199.448 166.14 200 166.14C200.552 166.14 201 166.587 201 167.14V177.726L204.707 181.433C205.098 181.824 205.098 182.456 204.707 182.847Z" fill="#FFCC4D"/>
<path d="M206 162.14C206 161.036 205.104 160.14 204 160.14H196C194.896 160.14 194 161.036 194 162.14V168.14H206V162.14Z" fill="#99AAB5"/>
<path d="M193.999 161.14C193.519 161.14 193.095 161.487 193.014 161.976C192.923 162.52 193.291 163.036 193.836 163.126L205.836 165.126C206.38 165.224 206.896 164.849 206.986 164.304C207.077 163.76 206.709 163.244 206.164 163.154L194.164 161.154C194.109 161.144 194.053 161.14 193.999 161.14ZM193.999 165.14C193.519 165.14 193.095 165.487 193.014 165.976C192.923 166.52 193.291 167.036 193.836 167.126L205.836 169.126C206.38 169.223 206.896 168.849 206.986 168.304C207.077 167.76 206.709 167.244 206.164 167.154L194.164 165.154C194.109 165.144 194.053 165.14 193.999 165.14Z" fill="#CCD6DD"/>
<path d="M186.549 141.182V131H185.013V141.182H186.549ZM191.526 130.851C190.909 130.851 190.359 131.008 189.875 131.323C189.395 131.641 189.017 132.094 188.742 132.68C188.47 133.27 188.334 133.978 188.334 134.803C188.334 135.629 188.472 136.335 188.747 136.921C189.025 137.508 189.406 137.957 189.89 138.268C190.374 138.58 190.923 138.736 191.536 138.736C192.01 138.736 192.391 138.656 192.679 138.497C192.971 138.341 193.196 138.159 193.355 137.95C193.518 137.741 193.644 137.558 193.733 137.398H193.823V141.182H195.309V131H193.858V132.188H193.733C193.644 132.026 193.515 131.84 193.346 131.631C193.18 131.423 192.951 131.24 192.659 131.085C192.368 130.929 191.99 130.851 191.526 130.851ZM191.854 132.119C192.282 132.119 192.643 132.231 192.938 132.457C193.236 132.685 193.462 133.002 193.614 133.406C193.77 133.811 193.848 134.281 193.848 134.818C193.848 135.348 193.771 135.813 193.619 136.21C193.467 136.608 193.243 136.918 192.948 137.14C192.653 137.362 192.288 137.473 191.854 137.473C191.407 137.473 191.034 137.357 190.735 137.125C190.437 136.893 190.212 136.576 190.059 136.175C189.91 135.774 189.836 135.322 189.836 134.818C189.836 134.308 189.912 133.849 190.064 133.441C190.217 133.033 190.442 132.71 190.74 132.472C191.042 132.236 191.413 132.119 191.854 132.119ZM200.722 130.846C199.97 130.846 199.322 131.007 198.778 131.328C198.238 131.653 197.82 132.109 197.525 132.695C197.234 133.285 197.088 133.976 197.088 134.768C197.088 135.551 197.234 136.24 197.525 136.837C197.82 137.433 198.231 137.899 198.758 138.234C199.289 138.568 199.908 138.736 200.618 138.736C201.049 138.736 201.466 138.665 201.871 138.522C202.275 138.379 202.638 138.156 202.959 137.851C203.281 137.546 203.534 137.15 203.72 136.663C203.906 136.179 203.998 135.59 203.998 134.898V134.371H197.928V135.484H202.542C202.542 135.875 202.462 136.222 202.303 136.523C202.144 136.828 201.92 137.069 201.632 137.244C201.347 137.42 201.012 137.508 200.628 137.508C200.21 137.508 199.845 137.405 199.534 137.2C199.226 136.997 198.987 136.732 198.818 136.404C198.652 136.079 198.569 135.726 198.569 135.345V134.475C198.569 133.965 198.659 133.531 198.838 133.173C199.02 132.815 199.274 132.541 199.599 132.352C199.923 132.167 200.303 132.074 200.737 132.074C201.019 132.074 201.276 132.114 201.508 132.193C201.74 132.276 201.94 132.399 202.109 132.561C202.278 132.723 202.407 132.924 202.497 133.163L203.904 132.909C203.791 132.495 203.589 132.132 203.297 131.82C203.009 131.512 202.646 131.272 202.209 131.099C201.774 130.93 201.279 130.846 200.722 130.846ZM205.648 131V138.636H207.134V131H205.648ZM206.398 139.815C206.14 139.815 205.918 139.901 205.732 140.073C205.55 140.249 205.459 140.458 205.459 140.7C205.459 140.945 205.55 141.154 205.732 141.326C205.918 141.502 206.14 141.589 206.398 141.589C206.657 141.589 206.877 141.502 207.06 141.326C207.245 141.154 207.338 140.945 207.338 140.7C207.338 140.458 207.245 140.249 207.06 140.073C206.877 139.901 206.657 139.815 206.398 139.815ZM211.356 130.831C210.872 130.831 210.435 130.92 210.044 131.099C209.653 131.282 209.343 131.545 209.114 131.89C208.889 132.235 208.776 132.657 208.776 133.158C208.776 133.589 208.859 133.943 209.025 134.222C209.19 134.5 209.414 134.72 209.696 134.883C209.978 135.045 210.292 135.168 210.64 135.251C210.988 135.334 211.343 135.397 211.704 135.44C212.162 135.493 212.533 135.536 212.818 135.569C213.103 135.605 213.31 135.663 213.439 135.743C213.569 135.822 213.633 135.952 213.633 136.131V136.165C213.633 136.6 213.511 136.936 213.265 137.175C213.023 137.413 212.662 137.533 212.182 137.533C211.681 137.533 211.287 137.422 210.998 137.2C210.713 136.981 210.516 136.737 210.407 136.469L209.01 136.787C209.175 137.251 209.417 137.625 209.736 137.911C210.057 138.199 210.427 138.408 210.844 138.537C211.262 138.67 211.701 138.736 212.162 138.736C212.467 138.736 212.79 138.699 213.131 138.626C213.476 138.557 213.797 138.428 214.096 138.239C214.397 138.05 214.644 137.78 214.836 137.428C215.029 137.08 215.125 136.628 215.125 136.071V131H213.673V132.044H213.613C213.517 131.852 213.373 131.663 213.181 131.477C212.989 131.292 212.742 131.138 212.44 131.015C212.139 130.892 211.777 130.831 211.356 130.831ZM211.68 132.024C212.09 132.024 212.442 132.105 212.733 132.268C213.028 132.43 213.252 132.642 213.405 132.904C213.56 133.169 213.638 133.453 213.638 133.754V134.739C213.585 134.686 213.483 134.636 213.33 134.589C213.181 134.546 213.01 134.508 212.818 134.475C212.626 134.445 212.439 134.417 212.256 134.391C212.074 134.367 211.921 134.348 211.799 134.331C211.51 134.295 211.247 134.233 211.008 134.147C210.773 134.061 210.584 133.937 210.442 133.774C210.302 133.615 210.233 133.403 210.233 133.138C210.233 132.77 210.369 132.491 210.64 132.303C210.912 132.117 211.259 132.024 211.68 132.024Z" fill="#F4F4F5"/>
<path d="M256 208C256 212.418 259.582 216 264 216H344C348.418 216 352 212.418 352 208V112C352 107.582 348.418 104 344 104H264C259.582 104 256 107.582 256 112V208Z" fill="#27272A"/>
<path d="M322 181.125C322 184.991 318.866 188.125 315 188.125C313.833 188.125 312.735 187.835 311.768 187.331C309.686 190.158 306.343 192 302.563 192C297.431 192 293.088 188.62 291.64 183.964C288.982 183.347 287 180.97 287 178.125C287 175.146 289.174 172.68 292.021 172.212C292.237 168.263 295.498 165.125 299.5 165.125C301.676 165.125 303.63 166.058 305 167.538C306.37 166.058 308.323 165.125 310.5 165.125C314.643 165.125 318 168.482 318 172.625C318 173.335 317.895 174.019 317.711 174.67C320.23 175.729 322 178.22 322 181.125Z" fill="#85C8F8"/>
<path d="M291 159.125C292.657 159.125 294 160.468 294 162.125C294 163.782 292.657 165.125 291 165.125C289.343 165.125 288 163.782 288 162.125C288 160.468 289.343 159.125 291 159.125Z" fill="#85C8F8"/>
<path d="M295.048 136.091C295.048 135.004 294.849 134.069 294.451 133.287C294.054 132.508 293.508 131.908 292.816 131.487C292.126 131.07 291.343 130.861 290.464 130.861C289.583 130.861 288.795 131.07 288.103 131.487C287.413 131.908 286.87 132.51 286.472 133.292C286.074 134.074 285.875 135.007 285.875 136.091C285.875 137.178 286.074 138.111 286.472 138.89C286.87 139.672 287.413 140.272 288.103 140.69C288.795 141.111 289.583 141.321 290.464 141.321C291.343 141.321 292.126 141.111 292.816 140.69C293.508 140.272 294.054 139.672 294.451 138.89C294.849 138.111 295.048 137.178 295.048 136.091ZM293.527 136.091C293.527 136.92 293.392 137.617 293.124 138.184C292.859 138.754 292.494 139.185 292.03 139.477C291.57 139.772 291.048 139.919 290.464 139.919C289.878 139.919 289.354 139.772 288.893 139.477C288.432 139.185 288.068 138.754 287.799 138.184C287.534 137.617 287.402 136.92 287.402 136.091C287.402 135.262 287.534 134.563 287.799 133.993C288.068 133.426 288.432 132.995 288.893 132.7C289.354 132.409 289.878 132.263 290.464 132.263C291.048 132.263 291.57 132.409 292.03 132.7C292.494 132.995 292.859 133.426 293.124 133.993C293.392 134.563 293.527 135.262 293.527 136.091ZM301.681 134.167V138.636H303.173V131H301.711V132.322H301.632C301.456 131.915 301.174 131.575 300.786 131.303C300.402 131.035 299.923 130.901 299.35 130.901C298.859 130.901 298.425 131.008 298.047 131.224C297.673 131.442 297.378 131.766 297.162 132.193C296.95 132.621 296.844 133.149 296.844 133.779V138.636H298.331V133.958C298.331 133.438 298.475 133.023 298.763 132.715C299.051 132.407 299.426 132.253 299.887 132.253C300.165 132.253 300.442 132.322 300.717 132.462C300.995 132.601 301.226 132.811 301.408 133.093C301.594 133.375 301.685 133.733 301.681 134.167ZM308.735 138.636V137.443H304.564V138.636H308.735ZM305.682 140.466H307.169V133.242C307.169 132.954 307.212 132.737 307.298 132.591C307.384 132.448 307.495 132.351 307.631 132.298C307.77 132.248 307.921 132.223 308.084 132.223C308.203 132.223 308.307 132.231 308.397 132.248C308.486 132.264 308.556 132.278 308.606 132.288L308.874 131.06C308.788 131.027 308.665 130.993 308.506 130.96C308.347 130.924 308.148 130.904 307.91 130.901C307.518 130.894 307.154 130.964 306.816 131.109C306.478 131.255 306.204 131.481 305.995 131.786C305.787 132.09 305.682 132.473 305.682 132.934V140.466ZM310.379 131V138.636H311.816V137.423H311.896C312.035 137.834 312.28 138.157 312.631 138.393C312.986 138.631 313.387 138.751 313.834 138.751C313.927 138.751 314.037 138.747 314.163 138.741C314.292 138.734 314.393 138.726 314.466 138.716V137.294C314.406 137.311 314.3 137.329 314.148 137.349C313.995 137.372 313.843 137.384 313.69 137.384C313.339 137.384 313.026 137.309 312.751 137.16C312.479 137.014 312.263 136.81 312.104 136.548C311.945 136.29 311.866 135.995 311.866 135.663V131H310.379ZM318.695 130.846C317.979 130.846 317.355 131.01 316.821 131.338C316.287 131.666 315.873 132.125 315.578 132.715C315.283 133.305 315.136 133.995 315.136 134.783C315.136 135.576 315.283 136.268 315.578 136.862C315.873 137.455 316.287 137.915 316.821 138.244C317.355 138.572 317.979 138.736 318.695 138.736C319.411 138.736 320.036 138.572 320.57 138.244C321.103 137.915 321.518 137.455 321.813 136.862C322.108 136.268 322.255 135.576 322.255 134.783C322.255 133.995 322.108 133.305 321.813 132.715C321.518 132.125 321.103 131.666 320.57 131.338C320.036 131.01 319.411 130.846 318.695 130.846ZM318.7 132.094C319.164 132.094 319.549 132.216 319.854 132.462C320.159 132.707 320.384 133.033 320.53 133.441C320.679 133.849 320.754 134.298 320.754 134.788C320.754 135.276 320.679 135.723 320.53 136.131C320.384 136.542 320.159 136.871 319.854 137.12C319.549 137.369 319.164 137.493 318.7 137.493C318.233 137.493 317.845 137.369 317.537 137.12C317.232 136.871 317.005 136.542 316.856 136.131C316.71 135.723 316.637 135.276 316.637 134.788C316.637 134.298 316.71 133.849 316.856 133.441C317.005 133.033 317.232 132.707 317.537 132.462C317.845 132.216 318.233 132.094 318.7 132.094Z" fill="#F4F4F5"/>
<path d="M117.459 44V52.7273H122.871V51.5938H118.776V48.9347H122.483V47.8054H118.776V44H117.459ZM126.728 43.8679C126.083 43.8679 125.528 44.0057 125.062 44.2812C124.599 44.5597 124.241 44.9503 123.988 45.4531C123.738 45.9588 123.613 46.5511 123.613 47.2301C123.613 47.9006 123.738 48.4915 123.988 49.0028C124.241 49.5142 124.593 49.9134 125.045 50.2003C125.5 50.4872 126.031 50.6307 126.639 50.6307C127.008 50.6307 127.366 50.5696 127.713 50.4474C128.059 50.3253 128.37 50.1335 128.646 49.8722C128.922 49.6108 129.139 49.2713 129.298 48.8537C129.457 48.4389 129.537 47.9347 129.537 47.3409V46.8892H124.333V47.8438H128.288C128.288 48.179 128.22 48.4759 128.083 48.7344C127.947 48.9957 127.755 49.2017 127.508 49.3523C127.264 49.5028 126.977 49.5781 126.647 49.5781C126.289 49.5781 125.977 49.4901 125.71 49.3139C125.446 49.1406 125.241 48.9134 125.096 48.6321C124.954 48.3537 124.883 48.0511 124.883 47.7244V46.9787C124.883 46.5412 124.96 46.169 125.113 45.8622C125.27 45.5554 125.487 45.321 125.765 45.1591C126.044 45 126.369 44.9205 126.741 44.9205C126.983 44.9205 127.203 44.9545 127.402 45.0227C127.6 45.0938 127.772 45.1989 127.917 45.3381C128.062 45.4773 128.173 45.6491 128.25 45.8537L129.456 45.6364C129.359 45.2813 129.186 44.9702 128.936 44.7031C128.689 44.4389 128.377 44.233 128.002 44.0852C127.63 43.9403 127.206 43.8679 126.728 43.8679ZM130.95 44V50.5455H132.224V44H130.95ZM131.594 51.5554C131.372 51.5554 131.182 51.6293 131.023 51.777C130.866 51.9276 130.788 52.1065 130.788 52.3139C130.788 52.5241 130.866 52.7031 131.023 52.8509C131.182 53.0014 131.372 53.0767 131.594 53.0767C131.815 53.0767 132.004 53.0014 132.161 52.8509C132.32 52.7031 132.399 52.5241 132.399 52.3139C132.399 52.1065 132.32 51.9276 132.161 51.777C132.004 51.6293 131.815 51.5554 131.594 51.5554ZM136.994 50.5455V49.5227H133.419V50.5455H136.994ZM134.377 52.1136H135.652V45.9219C135.652 45.6747 135.689 45.4886 135.762 45.3636C135.836 45.2415 135.931 45.1577 136.048 45.1122C136.167 45.0696 136.297 45.0483 136.436 45.0483C136.538 45.0483 136.627 45.0554 136.704 45.0696C136.781 45.0838 136.841 45.0952 136.883 45.1037L137.113 44.0511C137.039 44.0227 136.934 43.9943 136.798 43.9659C136.662 43.9347 136.491 43.9176 136.287 43.9148C135.951 43.9091 135.639 43.9688 135.349 44.0938C135.059 44.2188 134.825 44.4119 134.646 44.6733C134.467 44.9347 134.377 45.2628 134.377 45.6577V52.1136ZM141.09 43.8679C140.477 43.8679 139.941 44.0085 139.484 44.2898C139.026 44.571 138.671 44.9645 138.418 45.4702C138.165 45.9759 138.039 46.5668 138.039 47.2429C138.039 47.9219 138.165 48.5156 138.418 49.0241C138.671 49.5327 139.026 49.9276 139.484 50.2088C139.941 50.4901 140.477 50.6307 141.09 50.6307C141.704 50.6307 142.239 50.4901 142.697 50.2088C143.154 49.9276 143.509 49.5327 143.762 49.0241C144.015 48.5156 144.141 47.9219 144.141 47.2429C144.141 46.5668 144.015 45.9759 143.762 45.4702C143.509 44.9645 143.154 44.571 142.697 44.2898C142.239 44.0085 141.704 43.8679 141.09 43.8679ZM141.094 44.9375C141.492 44.9375 141.822 45.0426 142.083 45.2528C142.344 45.4631 142.538 45.7429 142.663 46.0923C142.79 46.4418 142.854 46.8267 142.854 47.2472C142.854 47.6648 142.79 48.0483 142.663 48.3977C142.538 48.75 142.344 49.0327 142.083 49.2457C141.822 49.4588 141.492 49.5653 141.094 49.5653C140.694 49.5653 140.362 49.4588 140.097 49.2457C139.836 49.0327 139.641 48.75 139.513 48.3977C139.388 48.0483 139.326 47.6648 139.326 47.2472C139.326 46.8267 139.388 46.4418 139.513 46.0923C139.641 45.7429 139.836 45.4631 140.097 45.2528C140.362 45.0426 140.694 44.9375 141.094 44.9375ZM151.496 43.8679C150.863 43.8679 150.317 44.0114 149.86 44.2983C149.406 44.5881 149.056 44.9872 148.812 45.4957C148.567 46.0043 148.445 46.5866 148.445 47.2429C148.445 47.9077 148.57 48.4943 148.82 49.0028C149.07 49.5142 149.423 49.9134 149.877 50.2003C150.332 50.4872 150.867 50.6307 151.484 50.6307C151.981 50.6307 152.424 50.5384 152.813 50.3537C153.202 50.1719 153.516 49.9162 153.755 49.5866C153.996 49.2571 154.14 48.8722 154.185 48.4318H152.945C152.877 48.7386 152.721 49.0028 152.477 49.2244C152.235 49.446 151.911 49.5568 151.505 49.5568C151.15 49.5568 150.839 49.4631 150.572 49.2756C150.308 49.0909 150.102 48.8267 149.954 48.483C149.806 48.142 149.732 47.7386 149.732 47.2727C149.732 46.7955 149.805 46.3835 149.95 46.0369C150.094 45.6903 150.299 45.4219 150.563 45.2315C150.83 45.0412 151.144 44.946 151.505 44.946C151.746 44.946 151.965 44.9901 152.161 45.0781C152.36 45.169 152.526 45.2983 152.66 45.4659C152.796 45.6335 152.891 45.8352 152.945 46.071H154.185C154.14 45.6477 154.002 45.2699 153.772 44.9375C153.542 44.6051 153.234 44.3438 152.847 44.1534C152.464 43.9631 152.013 43.8679 151.496 43.8679ZM158.305 43.8679C157.691 43.8679 157.156 44.0085 156.699 44.2898C156.241 44.571 155.886 44.9645 155.633 45.4702C155.38 45.9759 155.254 46.5668 155.254 47.2429C155.254 47.9219 155.38 48.5156 155.633 49.0241C155.886 49.5327 156.241 49.9276 156.699 50.2088C157.156 50.4901 157.691 50.6307 158.305 50.6307C158.919 50.6307 159.454 50.4901 159.912 50.2088C160.369 49.9276 160.724 49.5327 160.977 49.0241C161.23 48.5156 161.356 47.9219 161.356 47.2429C161.356 46.5668 161.23 45.9759 160.977 45.4702C160.724 44.9645 160.369 44.571 159.912 44.2898C159.454 44.0085 158.919 43.8679 158.305 43.8679ZM158.309 44.9375C158.707 44.9375 159.037 45.0426 159.298 45.2528C159.559 45.4631 159.752 45.7429 159.877 46.0923C160.005 46.4418 160.069 46.8267 160.069 47.2472C160.069 47.6648 160.005 48.0483 159.877 48.3977C159.752 48.75 159.559 49.0327 159.298 49.2457C159.037 49.4588 158.707 49.5653 158.309 49.5653C157.909 49.5653 157.576 49.4588 157.312 49.2457C157.051 49.0327 156.856 48.75 156.728 48.3977C156.603 48.0483 156.541 47.6648 156.541 47.2472C156.541 46.8267 156.603 46.4418 156.728 46.0923C156.856 45.7429 157.051 45.4631 157.312 45.2528C157.576 45.0426 157.909 44.9375 158.309 44.9375ZM162.778 44V50.5455H164.001V49.4801H164.082C164.219 49.8409 164.442 50.1222 164.751 50.3239C165.061 50.5284 165.432 50.6307 165.864 50.6307C166.301 50.6307 166.668 50.5284 166.963 50.3239C167.261 50.1193 167.482 49.8381 167.624 49.4801H167.692C167.848 49.8295 168.097 50.108 168.438 50.3153C168.778 50.5256 169.185 50.6307 169.656 50.6307C170.25 50.6307 170.734 50.4446 171.109 50.0724C171.487 49.7003 171.676 49.1392 171.676 48.3892V44H170.402V48.2699C170.402 48.7131 170.281 49.0341 170.04 49.233C169.798 49.4318 169.51 49.5312 169.175 49.5312C168.76 49.5312 168.438 49.4034 168.207 49.1477C167.977 48.8949 167.862 48.5696 167.862 48.1719V44H166.592V48.3509C166.592 48.706 166.482 48.9915 166.26 49.2074C166.038 49.4233 165.75 49.5312 165.395 49.5312C165.153 49.5312 164.93 49.4673 164.726 49.3395C164.524 49.2145 164.361 49.0398 164.236 48.8153C164.114 48.5909 164.053 48.331 164.053 48.0355V44H162.778ZM181.839 43.8636L177.459 48.2443C177.109 48.5938 176.876 49 176.76 49.4631C176.646 49.9261 176.648 50.3864 176.764 50.8438C176.881 51.304 177.112 51.7045 177.459 52.0455C177.814 52.3949 178.219 52.6264 178.673 52.7401C179.131 52.8565 179.587 52.8565 180.041 52.7401C180.499 52.6236 180.905 52.392 181.26 52.0455L181.839 51.483L182.419 52.0455C182.777 52.392 183.183 52.6236 183.638 52.7401C184.092 52.8565 184.547 52.8565 185.001 52.7401C185.459 52.6264 185.865 52.3949 186.22 52.0455C186.567 51.7045 186.798 51.304 186.915 50.8438C187.031 50.3864 187.031 49.9261 186.915 49.4631C186.801 49 186.57 48.5938 186.22 48.2443L181.839 43.8636ZM192.005 41.5455V50.5455H193.249V49.4844H193.356C193.43 49.6207 193.536 49.7784 193.675 49.9574C193.815 50.1364 194.008 50.2926 194.255 50.4261C194.502 50.5625 194.829 50.6307 195.235 50.6307C195.763 50.6307 196.235 50.4972 196.65 50.2301C197.065 49.9631 197.39 49.5781 197.626 49.0753C197.864 48.5724 197.984 47.9673 197.984 47.2599C197.984 46.5526 197.866 45.946 197.63 45.4403C197.394 44.9375 197.07 44.5497 196.658 44.277C196.246 44.0071 195.776 43.8722 195.248 43.8722C194.85 43.8722 194.525 43.9389 194.272 44.0724C194.022 44.206 193.826 44.3622 193.684 44.5412C193.542 44.7202 193.433 44.8793 193.356 45.0185H193.279V41.5455H192.005ZM193.254 47.2727C193.254 46.8125 193.32 46.4091 193.454 46.0625C193.587 45.7159 193.781 45.4446 194.033 45.2486C194.286 45.0554 194.596 44.9588 194.962 44.9588C195.343 44.9588 195.661 45.0597 195.917 45.2614C196.173 45.4659 196.366 45.7429 196.496 46.0923C196.63 46.4418 196.697 46.8352 196.697 47.2727C196.697 47.7045 196.631 48.0923 196.501 48.4361C196.373 48.7798 196.18 49.0511 195.921 49.25C195.665 49.4489 195.346 49.5483 194.962 49.5483C194.593 49.5483 194.281 49.4531 194.025 49.2628C193.772 49.0724 193.58 48.8068 193.45 48.4659C193.319 48.125 193.254 47.7273 193.254 47.2727ZM202.232 43.8679C201.587 43.8679 201.032 44.0057 200.566 44.2812C200.103 44.5597 199.745 44.9503 199.492 45.4531C199.242 45.9588 199.117 46.5511 199.117 47.2301C199.117 47.9006 199.242 48.4915 199.492 49.0028C199.745 49.5142 200.097 49.9134 200.549 50.2003C201.004 50.4872 201.535 50.6307 202.143 50.6307C202.512 50.6307 202.87 50.5696 203.217 50.4474C203.563 50.3253 203.874 50.1335 204.15 49.8722C204.425 49.6108 204.643 49.2713 204.802 48.8537C204.961 48.4389 205.04 47.9347 205.04 47.3409V46.8892H199.837V47.8438H203.792C203.792 48.179 203.724 48.4759 203.587 48.7344C203.451 48.9957 203.259 49.2017 203.012 49.3523C202.768 49.5028 202.481 49.5781 202.151 49.5781C201.793 49.5781 201.481 49.4901 201.214 49.3139C200.95 49.1406 200.745 48.9134 200.6 48.6321C200.458 48.3537 200.387 48.0511 200.387 47.7244V46.9787C200.387 46.5412 200.464 46.169 200.617 45.8622C200.773 45.5554 200.991 45.321 201.269 45.1591C201.548 45 201.873 44.9205 202.245 44.9205C202.487 44.9205 202.707 44.9545 202.906 45.0227C203.104 45.0938 203.276 45.1989 203.421 45.3381C203.566 45.4773 203.677 45.6491 203.754 45.8537L204.96 45.6364C204.863 45.2813 204.69 44.9702 204.44 44.7031C204.192 44.4389 203.881 44.233 203.506 44.0852C203.134 43.9403 202.71 43.8679 202.232 43.8679ZM207.728 52.7273V44H206.454V52.7273H207.728ZM211.347 43.8551C210.933 43.8551 210.558 43.9318 210.222 44.0852C209.887 44.2415 209.621 44.4673 209.425 44.7628C209.232 45.0582 209.136 45.4205 209.136 45.8494C209.136 46.2188 209.207 46.5227 209.349 46.7614C209.491 47 209.683 47.1889 209.924 47.3281C210.165 47.4673 210.435 47.5724 210.734 47.6435C211.032 47.7145 211.336 47.7685 211.646 47.8054C212.038 47.8509 212.356 47.8878 212.6 47.9162C212.844 47.9474 213.022 47.9972 213.133 48.0653C213.244 48.1335 213.299 48.2443 213.299 48.3977V48.4276C213.299 48.7997 213.194 49.0881 212.984 49.2926C212.776 49.4972 212.467 49.5994 212.055 49.5994C211.626 49.5994 211.288 49.5043 211.04 49.3139C210.796 49.1264 210.627 48.9176 210.533 48.6875L209.336 48.9602C209.478 49.358 209.685 49.679 209.958 49.9233C210.234 50.1705 210.55 50.3494 210.908 50.4602C211.266 50.5739 211.643 50.6307 212.038 50.6307C212.299 50.6307 212.576 50.5994 212.869 50.5369C213.164 50.4773 213.44 50.3665 213.695 50.2045C213.954 50.0426 214.165 49.8111 214.33 49.5099C214.495 49.2116 214.577 48.8239 214.577 48.3466V44H213.333V44.8949H213.282C213.2 44.7301 213.076 44.5682 212.911 44.4091C212.746 44.25 212.535 44.1179 212.276 44.0128C212.018 43.9077 211.708 43.8551 211.347 43.8551ZM211.624 44.8778C211.977 44.8778 212.278 44.9474 212.528 45.0866C212.781 45.2259 212.972 45.4077 213.103 45.6321C213.237 45.8594 213.303 46.1023 213.303 46.3608V47.2045C213.258 47.1591 213.17 47.1165 213.039 47.0767C212.911 47.0398 212.765 47.0071 212.6 46.9787C212.435 46.9531 212.275 46.929 212.119 46.9062C211.962 46.8864 211.832 46.8693 211.727 46.8551C211.479 46.8239 211.254 46.7713 211.049 46.6974C210.847 46.6236 210.685 46.517 210.563 46.3778C210.444 46.2415 210.384 46.0597 210.384 45.8324C210.384 45.517 210.501 45.2784 210.734 45.1165C210.967 44.9574 211.263 44.8778 211.624 44.8778ZM219.553 44V52.7273H222.663C223.339 52.7273 223.901 52.6108 224.347 52.3778C224.795 52.1449 225.131 51.8224 225.352 51.4105C225.574 51.0014 225.685 50.5284 225.685 49.9915C225.685 49.4574 225.572 48.9872 225.348 48.581C225.126 48.1776 224.791 47.8636 224.342 47.6392C223.896 47.4148 223.335 47.3026 222.659 47.3026H220.303V48.4361H222.54C222.966 48.4361 223.313 48.4972 223.58 48.6193C223.849 48.7415 224.047 48.919 224.172 49.152C224.297 49.3849 224.359 49.6648 224.359 49.9915C224.359 50.321 224.295 50.6065 224.168 50.848C224.043 51.0895 223.845 51.2741 223.575 51.402C223.308 51.5327 222.957 51.598 222.523 51.598H220.869V44H219.553ZM223.861 47.9375L226.017 44H224.517L222.403 47.9375H223.861ZM229.86 43.8679C229.246 43.8679 228.711 44.0085 228.253 44.2898C227.796 44.571 227.441 44.9645 227.188 45.4702C226.935 45.9759 226.809 46.5668 226.809 47.2429C226.809 47.9219 226.935 48.5156 227.188 49.0241C227.441 49.5327 227.796 49.9276 228.253 50.2088C228.711 50.4901 229.246 50.6307 229.86 50.6307C230.473 50.6307 231.009 50.4901 231.466 50.2088C231.924 49.9276 232.279 49.5327 232.532 49.0241C232.784 48.5156 232.911 47.9219 232.911 47.2429C232.911 46.5668 232.784 45.9759 232.532 45.4702C232.279 44.9645 231.924 44.571 231.466 44.2898C231.009 44.0085 230.473 43.8679 229.86 43.8679ZM229.864 44.9375C230.262 44.9375 230.591 45.0426 230.853 45.2528C231.114 45.4631 231.307 45.7429 231.432 46.0923C231.56 46.4418 231.624 46.8267 231.624 47.2472C231.624 47.6648 231.56 48.0483 231.432 48.3977C231.307 48.75 231.114 49.0327 230.853 49.2457C230.591 49.4588 230.262 49.5653 229.864 49.5653C229.463 49.5653 229.131 49.4588 228.867 49.2457C228.605 49.0327 228.411 48.75 228.283 48.3977C228.158 48.0483 228.096 47.6648 228.096 47.2472C228.096 46.8267 228.158 46.4418 228.283 46.0923C228.411 45.7429 228.605 45.4631 228.867 45.2528C229.131 45.0426 229.463 44.9375 229.864 44.9375ZM237.09 43.8679C236.457 43.8679 235.911 44.0114 235.454 44.2983C234.999 44.5881 234.65 44.9872 234.406 45.4957C234.161 46.0043 234.039 46.5866 234.039 47.2429C234.039 47.9077 234.164 48.4943 234.414 49.0028C234.664 49.5142 235.016 49.9134 235.471 50.2003C235.925 50.4872 236.461 50.6307 237.077 50.6307C237.575 50.6307 238.018 50.5384 238.407 50.3537C238.796 50.1719 239.11 49.9162 239.349 49.5866C239.59 49.2571 239.734 48.8722 239.779 48.4318H238.539C238.471 48.7386 238.315 49.0028 238.07 49.2244C237.829 49.446 237.505 49.5568 237.099 49.5568C236.744 49.5568 236.433 49.4631 236.165 49.2756C235.901 49.0909 235.695 48.8267 235.548 48.483C235.4 48.142 235.326 47.7386 235.326 47.2727C235.326 46.7955 235.398 46.3835 235.543 46.0369C235.688 45.6903 235.893 45.4219 236.157 45.2315C236.424 45.0412 236.738 44.946 237.099 44.946C237.34 44.946 237.559 44.9901 237.755 45.0781C237.954 45.169 238.12 45.2983 238.254 45.4659C238.39 45.6335 238.485 45.8352 238.539 46.071H239.779C239.734 45.6477 239.596 45.2699 239.366 44.9375C239.136 44.6051 238.827 44.3438 238.441 44.1534C238.058 43.9631 237.607 43.8679 237.09 43.8679ZM242.314 46.2202L242.305 47.7756H242.527L245.135 50.5455H246.66L243.686 47.392H243.485L242.314 46.2202ZM241.142 44V52.7273H242.416V44H241.142ZM245.275 44L242.931 47.1108L243.809 48.0014L246.839 44H245.275ZM250.373 43.8679C249.728 43.8679 249.173 44.0057 248.707 44.2812C248.244 44.5597 247.886 44.9503 247.633 45.4531C247.383 45.9588 247.258 46.5511 247.258 47.2301C247.258 47.9006 247.383 48.4915 247.633 49.0028C247.886 49.5142 248.238 49.9134 248.69 50.2003C249.144 50.4872 249.675 50.6307 250.283 50.6307C250.653 50.6307 251.011 50.5696 251.357 50.4474C251.704 50.3253 252.015 50.1335 252.29 49.8722C252.566 49.6108 252.783 49.2713 252.942 48.8537C253.102 48.4389 253.181 47.9347 253.181 47.3409V46.8892H247.978V47.8438H251.933C251.933 48.179 251.864 48.4759 251.728 48.7344C251.592 48.9957 251.4 49.2017 251.153 49.3523C250.908 49.5028 250.621 49.5781 250.292 49.5781C249.934 49.5781 249.621 49.4901 249.354 49.3139C249.09 49.1406 248.886 48.9134 248.741 48.6321C248.599 48.3537 248.528 48.0511 248.528 47.7244V46.9787C248.528 46.5412 248.604 46.169 248.758 45.8622C248.914 45.5554 249.131 45.321 249.41 45.1591C249.688 45 250.013 44.9205 250.386 44.9205C250.627 44.9205 250.847 44.9545 251.046 45.0227C251.245 45.0938 251.417 45.1989 251.562 45.3381C251.707 45.4773 251.817 45.6491 251.894 45.8537L253.1 45.6364C253.004 45.2813 252.83 44.9702 252.58 44.7031C252.333 44.4389 252.022 44.233 251.647 44.0852C251.275 43.9403 250.85 43.8679 250.373 43.8679ZM257.65 50.5455V49.5227H254.075V50.5455H257.65ZM255.034 52.1136H256.308V45.9219C256.308 45.6747 256.345 45.4886 256.419 45.3636C256.493 45.2415 256.588 45.1577 256.704 45.1122C256.824 45.0696 256.953 45.0483 257.092 45.0483C257.194 45.0483 257.284 45.0554 257.36 45.0696C257.437 45.0838 257.497 45.0952 257.539 45.1037L257.77 44.0511C257.696 44.0227 257.591 43.9943 257.454 43.9659C257.318 43.9347 257.147 43.9176 256.943 43.9148C256.608 43.9091 256.295 43.9688 256.005 44.0938C255.716 44.2188 255.481 44.4119 255.302 44.6733C255.123 44.9347 255.034 45.2628 255.034 45.6577V52.1136ZM263.859 48.9474L262.704 48.7429C262.656 48.8906 262.579 49.0313 262.474 49.1648C262.372 49.2983 262.233 49.4077 262.056 49.4929C261.88 49.5781 261.66 49.6207 261.396 49.6207C261.035 49.6207 260.734 49.5398 260.493 49.3778C260.251 49.2188 260.13 49.0128 260.13 48.7599C260.13 48.5412 260.211 48.3651 260.373 48.2315C260.535 48.098 260.797 47.9886 261.157 47.9034L262.197 47.6648C262.799 47.5256 263.248 47.3111 263.544 47.0213C263.839 46.7315 263.987 46.3551 263.987 45.892C263.987 45.5 263.873 45.1506 263.646 44.8438C263.422 44.5398 263.108 44.3011 262.704 44.1278C262.304 43.9545 261.839 43.8679 261.311 43.8679C260.578 43.8679 259.98 44.0241 259.517 44.3366C259.054 44.652 258.77 45.0994 258.664 45.679L259.896 45.8665C259.973 45.5455 260.13 45.3026 260.369 45.1378C260.608 44.9759 260.919 44.8949 261.302 44.8949C261.72 44.8949 262.054 44.9815 262.304 45.1548C262.554 45.331 262.679 45.5455 262.679 45.7983C262.679 46.0028 262.602 46.1747 262.449 46.3139C262.298 46.4531 262.066 46.5582 261.754 46.6293L260.646 46.8722C260.035 47.0114 259.583 47.233 259.291 47.5369C259.001 47.8409 258.856 48.2259 258.856 48.6918C258.856 49.0781 258.964 49.4162 259.18 49.706C259.396 49.9957 259.694 50.2216 260.075 50.3835C260.456 50.5483 260.892 50.6307 261.383 50.6307C262.091 50.6307 262.647 50.4773 263.054 50.1705C263.46 49.8665 263.728 49.4588 263.859 48.9474ZM268.209 43.8679C267.564 43.8679 267.009 44.0057 266.543 44.2812C266.08 44.5597 265.722 44.9503 265.469 45.4531C265.219 45.9588 265.094 46.5511 265.094 47.2301C265.094 47.9006 265.219 48.4915 265.469 49.0028C265.722 49.5142 266.074 49.9134 266.526 50.2003C266.98 50.4872 267.511 50.6307 268.119 50.6307C268.489 50.6307 268.847 50.5696 269.193 50.4474C269.54 50.3253 269.851 50.1335 270.126 49.8722C270.402 49.6108 270.619 49.2713 270.778 48.8537C270.938 48.4389 271.017 47.9347 271.017 47.3409V46.8892H265.814V47.8438H269.768C269.768 48.179 269.7 48.4759 269.564 48.7344C269.428 48.9957 269.236 49.2017 268.989 49.3523C268.744 49.5028 268.457 49.5781 268.128 49.5781C267.77 49.5781 267.457 49.4901 267.19 49.3139C266.926 49.1406 266.722 48.9134 266.577 48.6321C266.435 48.3537 266.364 48.0511 266.364 47.7244V46.9787C266.364 46.5412 266.44 46.169 266.594 45.8622C266.75 45.5554 266.967 45.321 267.246 45.1591C267.524 45 267.849 44.9205 268.222 44.9205C268.463 44.9205 268.683 44.9545 268.882 45.0227C269.081 45.0938 269.253 45.1989 269.398 45.3381C269.543 45.4773 269.653 45.6491 269.73 45.8537L270.936 45.6364C270.839 45.2813 270.666 44.9702 270.416 44.7031C270.169 44.4389 269.858 44.233 269.483 44.0852C269.111 43.9403 268.686 43.8679 268.209 43.8679ZM274.336 43.8551C273.921 43.8551 273.546 43.9318 273.211 44.0852C272.875 44.2415 272.61 44.4673 272.414 44.7628C272.221 45.0582 272.124 45.4205 272.124 45.8494C272.124 46.2188 272.195 46.5227 272.337 46.7614C272.479 47 272.671 47.1889 272.912 47.3281C273.154 47.4673 273.424 47.5724 273.722 47.6435C274.02 47.7145 274.324 47.7685 274.634 47.8054C275.026 47.8509 275.344 47.8878 275.588 47.9162C275.833 47.9474 276.01 47.9972 276.121 48.0653C276.232 48.1335 276.287 48.2443 276.287 48.3977V48.4276C276.287 48.7997 276.182 49.0881 275.972 49.2926C275.765 49.4972 275.455 49.5994 275.043 49.5994C274.614 49.5994 274.276 49.5043 274.029 49.3139C273.784 49.1264 273.615 48.9176 273.522 48.6875L272.324 48.9602C272.466 49.358 272.674 49.679 272.946 49.9233C273.222 50.1705 273.539 50.3494 273.897 50.4602C274.255 50.5739 274.631 50.6307 275.026 50.6307C275.287 50.6307 275.564 50.5994 275.857 50.5369C276.152 50.4773 276.428 50.3665 276.684 50.2045C276.942 50.0426 277.154 49.8111 277.319 49.5099C277.483 49.2116 277.566 48.8239 277.566 48.3466V44H276.321V44.8949H276.27C276.188 44.7301 276.064 44.5682 275.9 44.4091C275.735 44.25 275.523 44.1179 275.265 44.0128C275.006 43.9077 274.696 43.8551 274.336 43.8551ZM274.613 44.8778C274.965 44.8778 275.266 44.9474 275.516 45.0866C275.769 45.2259 275.961 45.4077 276.091 45.6321C276.225 45.8594 276.292 46.1023 276.292 46.3608V47.2045C276.246 47.1591 276.158 47.1165 276.027 47.0767C275.9 47.0398 275.753 47.0071 275.588 46.9787C275.424 46.9531 275.263 46.929 275.107 46.9062C274.951 46.8864 274.82 46.8693 274.715 46.8551C274.468 46.8239 274.242 46.7713 274.037 46.6974C273.836 46.6236 273.674 46.517 273.551 46.3778C273.432 46.2415 273.373 46.0597 273.373 45.8324C273.373 45.517 273.489 45.2784 273.722 45.1165C273.955 44.9574 274.252 44.8778 274.613 44.8778ZM282.318 50.5455V49.5227H278.743V50.5455H282.318ZM279.702 52.1136H280.976V45.9219C280.976 45.6747 281.013 45.4886 281.087 45.3636C281.161 45.2415 281.256 45.1577 281.372 45.1122C281.491 45.0696 281.621 45.0483 281.76 45.0483C281.862 45.0483 281.952 45.0554 282.028 45.0696C282.105 45.0838 282.165 45.0952 282.207 45.1037L282.438 44.0511C282.364 44.0227 282.259 43.9943 282.122 43.9659C281.986 43.9347 281.815 43.9176 281.611 43.9148C281.276 43.9091 280.963 43.9688 280.673 44.0938C280.384 44.2188 280.149 44.4119 279.97 44.6733C279.791 44.9347 279.702 45.2628 279.702 45.6577V52.1136Z" fill="#A1A1AA"/>
<path d="M218.594 41.6136H282.868V40.7955H218.594V41.6136Z" fill="#A1A1AA"/>
<a href="https://www.rocketseat.com.br/">
<rect fill="black" fill-opacity="0" x="102.094" y="0.738636" width="64.2742" height="14.5227"/>
</a>
<path d="M344.5 264.5L335.5 255.5" stroke="#A1A1AA" stroke-width="1.5" stroke-linecap="round" stroke-linejoin="round"/>
<path d="M344.5 255.5L335.5 264.5" stroke="#A1A1AA" stroke-width="1.5" stroke-linecap="round" stroke-linejoin="round"/>
</g>
<defs>
<filter id="filter0_d_10_1727" x="0" y="0" width="400" height="328" filterUnits="userSpaceOnUse" color-interpolation-filters="sRGB">
<feFlood flood-opacity="0" result="BackgroundImageFix"/>
<feColorMatrix in="SourceAlpha" type="matrix" values="0 0 0 0 0 0 0 0 0 0 0 0 0 0 0 0 0 0 127 0" result="hardAlpha"/>
<feOffset dy="8"/>
<feGaussianBlur stdDeviation="16"/>
<feComposite in2="hardAlpha" operator="out"/>
<feColorMatrix type="matrix" values="0 0 0 0 0 0 0 0 0 0 0 0 0 0 0 0 0 0 0.15 0"/>
<feBlend mode="normal" in2="BackgroundImageFix" result="effect1_dropShadow_10_1727"/>
<feBlend mode="normal" in="SourceGraphic" in2="effect1_dropShadow_10_1727" result="shape"/>
</filter>
</defs>
</svg>
